<svg width="728" height="177" viewBox="0 0 728 177" fill="none" xmlns="http://www.w3.org/2000/svg">
<g clip-path="url(#clip0_45_6)">
<path d="M316.44 170.33L287 57.41L308.09 51.91L333 147.47L361.38 83.35C364.06 75.93 362.36 70.35 361.17 66.16C360.17 62.62 359.24 60.91 357.52 57.56L378.61 52.06C380.71 56.01 382.28 59.53 383.69 65.34C385.25 71.78 386.27 79.12 383.55 87.14L346.59 170.33H316.43H316.44Z" fill="#1B2C56"/>
<path d="M402.43 128.96L402.34 97.17C402.28 67.35 417.32 52.22 450.98 52.22C484.64 52.22 500.26 67.55 500.15 97.17L500.24 128.96C500.4 156.52 485.36 174.07 451.63 174.07C417.9 174.07 402.38 155.27 402.44 128.96H402.43ZM479.53 97.17C479.46 77.97 471.47 70.05 452.15 70.01C432.45 69.97 424.85 77.96 424.81 97.17L424.86 128.96C424.86 146.06 432.44 156.26 452.45 156.28C471.47 156.3 479.57 147.26 479.55 128.96L479.53 97.17Z" fill="#1B2C56"/>
<path d="M528.78 57.97L550.7 52.24L550.64 170.33H529.09L528.78 57.97Z" fill="#1B2C56"/>
<path d="M582.15 6.18L603.92 0.5V170.33H582.14L582.16 6.18H582.15Z" fill="#1B2C56"/>
<path d="M727.4 170.33H709.35L707.39 155.69C695.29 167.6 678.74 174.2 662.27 174.2C642.34 174.2 632.99 162.63 630.37 148.74C629.81 145.76 629.73 142.54 629.66 139.31V96.58C629.71 67.3 638.55 52.16 679.46 52.16C695.4 52.16 713.89 55.89 727.48 60.35L727.41 170.33H727.4ZM705.64 72.75C698.41 71.02 689.14 69.77 680.11 69.77C660.19 69.77 651.43 75.48 651.41 99.3V137.82C651.45 140.8 651.53 144.02 651.95 146.26C653.03 151.97 656.51 156.22 664.48 156.22C680.68 156.22 693.22 146.75 705.71 134.1L705.65 72.75H705.64Z" fill="#1B2C56"/>
<path d="M539.71 39.82C546.288 39.82 551.62 34.4877 551.62 27.91C551.62 21.3323 546.288 16 539.71 16C533.132 16 527.8 21.3323 527.8 27.91C527.8 34.4877 533.132 39.82 539.71 39.82Z" fill="#1B2C56"/>
<path d="M265.93 136.38C251.16 145.45 231.27 156.26 217.71 156.26C204.15 156.26 197.01 152.88 195.52 145.27C195.33 144.29 194.99 142.57 195 139.87L195.02 130.15C205.7 126.96 216.17 125.74 231.09 120.83C265.75 109.54 274.01 99.48 270.06 79.36C266.6 61.69 249.16 52.37 227.36 52.37C190.22 52.37 172.81 67.59 172.8 97.77L172.88 135.46C172.89 139.63 173.39 143.56 173.97 146.5C177.19 162.94 189.9 174.23 216.28 174.23C237.64 174.23 257.54 162.85 271.08 153.62L265.93 136.38ZM194.87 95.07C194.84 75.69 208.55 70.08 229 70.08C240.84 70.08 248.22 73.73 249.76 81.58C251.68 91.4 241.23 99 220.58 104.89C208.61 108.33 201.74 109.55 194.86 111.52V95.08L194.87 95.07Z" fill="#1B2C56"/>
<path d="M115.4 48.4C106.01 39.23 66.86 40.35 38.31 55.51C8.06999 71.57 2.98999 92.54 1.44999 103.38C-1.33001 122.99 8.89999 141.44 25.56 150.03C28.37 146.92 31.65 143.51 34.69 139.36C43.56 127.26 44.44 113.27 45.78 103.39C49.15 78.58 71.99 61.2 96.8 64.57C102.22 65.31 107.29 66.97 111.87 69.39C114.36 66.65 116.46 64.12 117.67 61.5C118.5 59.98 118.98 58.23 118.98 56.38C118.98 53.21 117.59 50.37 115.39 48.41L115.4 48.4Z" fill="#0FD8A3"/>
<path d="M91.2298 116.09C92.6298 106.21 93.5798 92.23 102.52 80.18C105.65 75.96 109.02 72.53 111.88 69.38C107.31 66.96 102.24 65.3 96.8098 64.56C71.9998 61.19 49.1598 78.57 45.7898 103.38C44.4498 113.26 43.5798 127.25 34.6998 139.35C31.6498 143.5 28.3698 146.9 25.5698 150.02C29.9698 152.29 34.8098 153.88 39.9798 154.62C64.7698 158.13 87.7098 140.88 91.2198 116.09H91.2298Z" fill="#1279D6"/>
<path d="M111.88 69.39C109.02 72.54 105.65 75.97 102.52 80.19C93.5798 92.24 92.6298 106.22 91.2298 116.1C87.7198 140.89 64.7798 158.14 39.9898 154.63C34.8098 153.9 29.9798 152.31 25.5798 150.04C23.0298 152.87 20.8798 155.46 19.6698 158.15C18.8498 159.68 18.3798 161.42 18.3898 163.28C18.4098 166.45 19.8098 169.28 22.0198 171.23C31.4598 180.35 70.5998 179.01 99.0698 163.69C129.22 147.46 134.18 126.46 135.65 115.61C138.28 96.22 128.25 78.04 111.89 69.41L111.88 69.39Z" fill="#1D39AA"/>
</g>
<defs>
<clipPath id="clip0_45_6">
<rect width="728" height="177" fill="white"/>
</clipPath>
</defs>
</svg>
